<mxfile host="65bd71144e">
    <diagram id="ipqfdt2y6u0qxy-ZfEeN" name="Page-1">
        <mxGraphModel dx="1002" dy="493" grid="1" gridSize="10" guides="1" tooltips="1" connect="1" arrows="1" fold="1" page="1" pageScale="1" pageWidth="850" pageHeight="1100" math="0" shadow="0">
            <root>
                <mxCell id="0"/>
                <mxCell id="1" parent="0"/>
                <mxCell id="14" value="Section-1" style="rounded=0;whiteSpace=wrap;html=1;fillColor=#a20025;fontColor=#ffffff;strokeColor=#6F0000;fontSize=18;fontStyle=1" parent="1" vertex="1">
                    <mxGeometry x="230" y="20" width="410" height="150" as="geometry"/>
                </mxCell>
                <mxCell id="15" value="Section-2" style="rounded=0;whiteSpace=wrap;html=1;fillColor=#008a00;fontColor=#ffffff;strokeColor=#005700;fontSize=18;fontStyle=1" parent="1" vertex="1">
                    <mxGeometry x="230" y="190" width="410" height="150" as="geometry"/>
                </mxCell>
                <mxCell id="16" value="Section-3" style="rounded=0;whiteSpace=wrap;html=1;fillColor=#a20025;fontColor=#ffffff;strokeColor=#6F0000;fontSize=18;fontStyle=1" parent="1" vertex="1">
                    <mxGeometry x="230" y="360" width="410" height="150" as="geometry"/>
                </mxCell>
                <mxCell id="17" value="Section-4" style="rounded=0;whiteSpace=wrap;html=1;fillColor=#a20025;fontColor=#ffffff;strokeColor=#6F0000;fontSize=18;fontStyle=1" parent="1" vertex="1">
                    <mxGeometry x="230" y="527" width="410" height="150" as="geometry"/>
                </mxCell>
                <mxCell id="18" value="Section-5" style="rounded=0;whiteSpace=wrap;html=1;fillColor=#a20025;fontColor=#ffffff;strokeColor=#6F0000;fontSize=18;fontStyle=1" parent="1" vertex="1">
                    <mxGeometry x="230" y="690" width="410" height="150" as="geometry"/>
                </mxCell>
                <mxCell id="20" style="edgeStyle=none;html=1;entryX=1;entryY=0.5;entryDx=0;entryDy=0;fillColor=#a20025;strokeColor=#6F0000;fontSize=18;fontStyle=1" parent="1" source="19" target="15" edge="1">
                    <mxGeometry relative="1" as="geometry">
                        <mxPoint x="760" y="210" as="targetPoint"/>
                        <Array as="points">
                            <mxPoint x="800" y="925"/>
                            <mxPoint x="800" y="265"/>
                        </Array>
                    </mxGeometry>
                </mxCell>
                <mxCell id="19" value="&lt;font style=&quot;font-size: 18px;&quot;&gt;Arrow&lt;/font&gt;" style="rounded=0;whiteSpace=wrap;html=1;fillColor=#6a00ff;fontColor=#ffffff;strokeColor=#3700CC;fontSize=18;fontStyle=1" parent="1" vertex="1">
                    <mxGeometry x="230" y="850" width="410" height="150" as="geometry"/>
                </mxCell>
                <mxCell id="21" value="Arrow" style="ellipse;shape=cloud;whiteSpace=wrap;html=1;fillColor=#6a00ff;fontColor=#ffffff;strokeColor=#3700CC;fontSize=18;fontStyle=1" vertex="1" parent="1">
                    <mxGeometry x="30" y="80" width="120" height="80" as="geometry"/>
                </mxCell>
            </root>
        </mxGraphModel>
    </diagram>
</mxfile>